<svg xmlns="http://www.w3.org/2000/svg" width="64" height="64" viewBox="0 0 36 36">
  <defs>
    <linearGradient id="brand" x1="0" y1="0" x2="1" y2="1">
      <stop stop-color="#3b6cff" />
      <stop offset="1" stop-color="#7f22fe" />
    </linearGradient>
  </defs>
  <rect width="36" height="36" rx="12" fill="url(#brand)" />
  <g transform="translate(8 8) scale(.8333333333)" fill="none" stroke="#fff" stroke-width="2" stroke-linecap="round" stroke-linejoin="round">
    <path d="M17.596 12.768a2 2 0 1 0 2.829-2.829l-1.768-1.767a2 2 0 0 0 2.828-2.829l-2.828-2.828a2 2 0 0 0-2.829 2.828l-1.767-1.768a2 2 0 1 0-2.829 2.829z" />
    <path d="m2.5 21.5 1.4-1.4" />
    <path d="m20.1 3.9 1.4-1.4" />
    <path d="M5.343 21.485a2 2 0 1 0 2.829-2.828l1.767 1.768a2 2 0 1 0 2.829-2.829l-6.364-6.364a2 2 0 1 0-2.829 2.829l1.768 1.767a2 2 0 0 0-2.828 2.829z" />
    <path d="m9.6 14.4 4.8-4.8" />
  </g>
</svg>
